<svg width="57" height="90" viewBox="0 0 57 90" fill="none" xmlns="http://www.w3.org/2000/svg">
<path d="M56.2568 61.1851C56.2568 76.72 43.6633 89.3135 28.1284 89.3135C12.5935 89.3135 0 76.72 0 61.1851C0 45.6502 12.5935 33.0567 28.1284 33.0567C43.6633 33.0567 56.2568 45.6502 56.2568 61.1851Z" fill="#F8FBFF"/>
<path d="M51.9244 24.115C48.8015 36.0497 42.2088 44.6621 37.1992 43.3513C32.1895 42.0404 30.66 31.3028 33.7829 19.3681C36.9057 7.43336 43.4984 -1.179 48.5081 0.131836C53.5177 1.44267 55.0472 12.1803 51.9244 24.115Z" fill="#F8FBFF"/>
<path d="M4.55136 24.115C7.67423 36.0497 14.2669 44.6621 19.2766 43.3513C24.2862 42.0404 25.8157 31.3028 22.6929 19.3681C19.57 7.43336 12.9773 -1.179 7.96766 0.131836C2.95802 1.44267 1.42849 12.1803 4.55136 24.115Z" fill="#F8FBFF"/>
</svg>
