<svg width="681" height="117" viewBox="0 0 681 117" fill="none" xmlns="http://www.w3.org/2000/svg">
<path d="M662.237 36.6124C654.706 31.8923 648.68 24.8389 645.015 16.8868C644.962 16.773 644.863 16.6848 644.741 16.6556C644.548 16.6092 644.358 16.7075 644.279 16.8796C640.61 24.8379 634.587 31.8896 627.053 36.6123C626.675 36.8493 626.673 37.3985 627.05 37.6376C634.482 42.3573 640.845 49.349 644.283 57.3272C644.426 57.6605 644.896 57.6604 645.039 57.3272C648.476 49.3478 654.806 42.3587 662.24 37.6376C662.617 37.3985 662.615 36.8493 662.237 36.6124Z" fill="white"/>
<path d="M680.849 58.9769C676.148 55.0938 672.677 49.7584 670.893 44.0229C670.867 43.9408 670.807 43.8719 670.727 43.8412C670.6 43.7923 670.462 43.8422 670.393 43.9522C667.189 49.0367 662.465 53.2942 656.921 55.8328C656.643 55.9601 656.592 56.3335 656.827 56.5298C661.462 60.4037 665.166 65.7272 666.794 71.4603C666.862 71.6997 667.181 71.7417 667.308 71.5279C670.356 66.4082 675.283 62.2208 680.76 59.6744C681.037 59.5455 681.085 59.1718 680.849 58.9769Z" fill="white"/>
<path d="M75.53 42.6622C76.3842 45.6815 76.4526 48.6756 75.7354 51.6447C75.0416 54.5717 73.6139 57.2815 71.4524 59.7743C69.3144 62.2249 66.4873 64.3039 62.971 66.0113C61.4493 66.7624 60.068 67.5091 58.8269 68.2515C57.5766 68.961 56.317 69.6377 55.0481 70.2816C53.7792 70.9255 52.293 71.4892 50.5894 71.9729C48.4272 72.5868 46.4362 72.9925 44.6163 73.1901C42.8293 73.3784 41.1735 73.4053 39.649 73.2708C38.1479 73.0943 36.7267 72.8242 35.3851 72.4605L34.0005 67.0036C35.0707 67.4089 36.1412 67.6899 37.212 67.8468C38.2827 68.0038 39.4075 68.039 40.5864 67.9525C41.7887 67.8238 43.1106 67.5549 44.552 67.1456C48.385 66.0574 51.0552 64.1116 52.5625 61.3082C54.0934 58.4627 54.1764 54.6278 52.8115 49.8035C51.7531 46.0622 50.1391 42.9219 47.9696 40.3824C45.8001 37.8429 43.3202 36.0829 40.53 35.1023C37.7633 34.0797 34.9385 33.9776 32.0555 34.7961L30.1391 35.3402L45.2915 88.8996C45.5236 89.7201 45.8567 90.3346 46.2908 90.7432C46.7484 91.1096 47.4004 91.35 48.2467 91.4642L50.0003 91.6577C51.0383 91.824 51.7697 92.0949 52.1945 92.4707C52.6193 92.8464 52.9385 93.4117 53.1521 94.1665C53.6906 96.07 52.7641 97.3612 50.3726 98.0402L22.4607 105.965C21.2158 106.318 20.2242 106.316 19.486 105.958C18.7478 105.601 18.2579 104.995 18.0166 104.142C17.5802 102.599 18.0366 101.335 19.3857 100.35L21.2194 99.1376C21.9549 98.6097 22.4495 98.0438 22.7034 97.4399C22.99 96.8267 23.0172 96.1099 22.7851 95.2894L8.77469 45.7666C8.56114 45.0118 8.17644 44.4651 7.62057 44.1266C7.09746 43.7787 6.38462 43.5734 5.48205 43.5105L3.28624 43.4426C1.62142 43.3125 0.570826 42.4763 0.134451 40.9338C-0.116233 40.0477 -0.0163662 39.2748 0.434052 38.6151C0.875185 37.9226 1.7182 37.3996 2.96309 37.0462L31.2681 29.0101C39.2616 26.7407 46.3308 25.8328 52.4757 26.2863C58.6206 26.7399 63.6498 28.3788 67.5633 31.2032C71.5003 33.9854 74.1559 37.8051 75.53 42.6622ZM46.8955 70.3626L67.8349 61.8118L84.7784 78.1675C85.6139 78.994 86.3306 79.5882 86.9285 79.9503C87.5592 80.303 88.2813 80.5412 89.0949 80.6648C89.9412 80.779 90.5978 81.0358 91.0647 81.4351C91.5223 81.8015 91.8578 82.3621 92.0714 83.117C92.3128 83.9702 92.2129 84.7431 91.7718 85.4356C91.3307 86.1281 90.4876 86.6511 89.2428 87.0046L64.2302 94.1059C61.9042 94.7662 60.472 94.1447 59.9335 92.2412C59.8035 91.7818 59.7903 91.36 59.8941 90.9761C60.0212 90.5499 60.2677 90.1077 60.6335 89.6493L61.1822 88.9617C61.7168 88.349 61.9728 87.8154 61.9504 87.3609C61.9607 86.8971 61.6112 86.2872 60.9019 85.5313L46.8955 70.3626Z" fill="white"/>
<path d="M126.54 74.6168L126.402 73.5512L124.896 73.85L120.562 40.3606C120.395 39.0751 119.926 38.1041 119.155 37.4477C118.379 36.7573 117.417 36.4867 116.268 36.6358C115.357 36.7542 114.594 37.0941 113.98 37.6554C113.399 38.2123 113.16 38.8798 113.26 39.6578L113.976 45.1887C114.331 47.9287 113.649 50.2187 111.929 52.0586C110.24 53.8603 107.656 54.987 104.178 55.4387C101.308 55.8115 99.0655 55.4663 97.4515 54.4033C95.8374 53.3403 94.8816 51.6586 94.5839 49.3583C94.2993 47.1595 94.9962 44.8504 96.6746 42.4311C98.3486 39.9779 101.05 37.7697 104.779 35.8063C108.541 33.8386 113.394 32.4688 119.337 31.6969C126.395 30.7803 131.798 31.4029 135.545 33.5647C139.327 35.7221 141.513 39.0841 142.104 43.6509L145.263 68.0576C145.35 68.7341 145.591 69.2704 145.986 69.6663C146.376 70.0283 146.892 70.1677 147.534 70.0844C148.108 70.0098 148.561 69.7962 148.893 69.4435C149.22 69.057 149.491 68.6263 149.704 68.1515C149.876 67.8883 150.055 67.676 150.24 67.5144C150.459 67.3483 150.72 67.2456 151.024 67.2061C151.53 67.1403 151.909 67.2803 152.16 67.6261C152.44 67.9337 152.617 68.375 152.692 68.9501C152.867 70.3032 152.534 71.8427 151.693 73.5686C150.852 75.2944 149.459 76.8684 147.514 78.2904C145.565 79.6787 143.003 80.5789 139.829 80.9912C136.115 81.4736 133.044 81.0984 130.619 79.8656C128.193 78.6328 126.834 76.8832 126.54 74.6168ZM95.8197 74.4275C95.2331 69.8946 96.7951 66.0457 100.506 62.8809C104.216 59.716 109.888 57.638 117.519 56.6468C119.444 56.3969 121.118 56.3342 122.542 56.4588C123.962 56.5496 125.16 56.7895 126.138 57.1785L125.104 61.1308C124.308 60.8213 123.579 60.6237 122.916 60.5379C122.252 60.4521 121.532 60.4596 120.755 60.5605C119.134 60.771 117.928 61.5296 117.136 62.8364C116.339 64.1093 116.087 65.879 116.381 68.1455C116.678 70.4458 117.377 72.1265 118.475 73.1877C119.57 74.215 120.877 74.63 122.396 74.4327C123.342 74.3099 124.206 73.9568 124.989 73.3736C125.805 72.786 126.392 72.1423 126.747 71.4426L128.315 74.799C127.039 77.4069 124.983 79.5657 122.149 81.2753C119.314 82.9849 116.175 84.0634 112.73 84.5107C108.138 85.1072 104.274 84.4395 101.14 82.5076C98.0398 80.5713 96.2663 77.8779 95.8197 74.4275Z" fill="white"/>
<path d="M179.114 3.89462L180.728 73.5643L171.042 76.7067C168.576 77.5829 166.835 78.1523 165.82 78.4147C164.838 78.6764 163.921 78.8171 163.07 78.8369C162.083 78.8598 161.26 78.589 160.599 78.0243C159.974 77.4929 159.649 76.6986 159.625 75.6415L158.22 15.0257C158.198 14.0709 158.046 13.392 157.765 12.9891C157.517 12.5855 157.119 12.3218 156.571 12.198L155.287 11.9208C154.67 11.7304 154.204 11.4512 153.889 11.0832C153.608 10.7144 153.46 10.2231 153.446 9.6093C153.43 8.92726 153.605 8.37728 153.97 7.95936C154.369 7.54064 155.091 7.11441 156.137 6.68066L168.644 1.8349C170.229 1.18388 171.479 0.728331 172.393 0.468255C173.305 0.174075 174.119 0.0186766 174.834 0.00205895C176.23 -0.0303851 177.277 0.320599 177.975 1.05501C178.707 1.78863 179.087 2.73517 179.114 3.89462ZM176.676 44.23L173.439 41.2344C176.094 36.7371 179.094 33.2042 182.441 30.6356C185.821 28.0663 189.724 26.7302 194.15 26.6273C198.167 26.5339 201.765 27.4739 204.944 29.4472C208.156 31.3856 210.707 34.1412 212.595 37.714C214.516 41.252 215.532 45.4251 215.643 50.2335C215.771 55.7238 214.759 60.5583 212.607 64.7368C210.49 68.9145 207.535 72.1905 203.741 74.5648C199.947 76.939 195.616 78.1827 190.749 78.2958C186.8 78.3876 183.377 77.6654 180.48 76.1291C177.583 74.5587 175.057 72.1266 172.903 68.8329L177.73 65.4452C179.174 67.5271 180.554 68.9963 181.868 69.8529C183.216 70.7086 184.69 71.1179 186.29 71.0807C187.89 71.0435 189.272 70.4314 190.437 69.2442C191.635 68.0563 192.528 66.1419 193.114 63.501C193.733 60.8253 193.991 57.2708 193.888 52.8376C193.795 48.8136 193.38 45.5989 192.643 43.1935C191.94 40.7532 190.996 39.0009 189.814 37.9365C188.63 36.8381 187.255 36.307 185.69 36.3434C183.919 36.3846 182.283 37.0368 180.779 38.3001C179.309 39.5285 177.941 41.5051 176.676 44.23Z" fill="white"/>
<path d="M251.021 5.27063L245.707 74.7554L235.758 76.9168C233.217 77.5428 231.428 77.9358 230.391 78.0957C229.388 78.2582 228.463 78.3069 227.614 78.2418C226.629 78.1662 225.836 77.8145 225.236 77.1868C224.666 76.5958 224.422 75.773 224.502 74.7187L229.126 14.2639C229.199 13.3115 229.115 12.6209 228.875 12.1919C228.668 11.7655 228.299 11.4635 227.766 11.2858L226.516 10.8819C225.921 10.631 225.484 10.3067 225.207 9.90911C224.964 9.51414 224.866 9.01056 224.913 8.39835C224.965 7.71813 225.194 7.18828 225.598 6.80881C226.037 6.43195 226.798 6.07984 227.882 5.75249L240.808 2.17748C242.45 1.68775 243.739 1.35903 244.674 1.19131C245.612 0.989583 246.437 0.916079 247.15 0.970803C248.542 1.07764 249.549 1.53125 250.17 2.33161C250.826 3.13458 251.11 4.11425 251.021 5.27063ZM244.589 45.1628L241.666 41.8595C244.754 37.6491 248.091 34.4328 251.676 32.2106C255.295 29.991 259.311 29.0505 263.725 29.3893C267.731 29.6968 271.218 30.9907 274.185 33.2711C277.189 35.5202 279.453 38.5163 280.977 42.2596C282.537 45.9715 283.134 50.2252 282.767 55.0208C282.348 60.4966 280.861 65.2062 278.305 69.1495C275.784 73.0955 272.518 76.0606 268.507 78.0449C264.496 80.0292 260.063 80.835 255.208 80.4624C251.27 80.1601 247.936 79.1002 245.206 77.2828C242.479 75.4314 240.208 72.7596 238.392 69.2676L243.53 66.3778C244.761 68.5933 245.988 70.1927 247.21 71.176C248.467 72.162 249.893 72.7162 251.488 72.8386C253.084 72.9611 254.52 72.4898 255.797 71.4246C257.108 70.362 258.186 68.5461 259.031 65.9767C259.913 63.376 260.523 59.8649 260.861 55.4434C261.168 51.4301 261.074 48.19 260.58 45.7231C260.122 43.2248 259.358 41.3871 258.287 40.2102C257.218 38.9992 255.903 38.3338 254.341 38.2139C252.576 38.0784 250.883 38.5642 249.261 39.6713C247.676 40.7471 246.119 42.5776 244.589 45.1628Z" fill="white"/>
<path d="M318.311 39.9133L312.648 76.21C312.459 77.4232 312.423 78.3153 312.541 78.8861C312.664 79.4233 312.945 79.8298 313.384 80.1058L314.567 80.8088C315.198 81.1838 315.63 81.614 315.865 82.0996C316.099 82.5851 316.172 83.1143 316.082 83.6873C315.951 84.5298 315.579 85.1448 314.967 85.5324C314.394 85.8915 313.536 85.9815 312.392 85.8024L289.078 82.1518C287.934 81.9727 287.127 81.622 286.658 81.0996C286.227 80.5487 286.077 79.852 286.208 79.0095C286.298 78.4366 286.511 77.9521 286.849 77.5561C287.22 77.1654 287.78 76.8906 288.528 76.7316L289.818 76.4157C290.354 76.2925 290.763 75.9939 291.043 75.52C291.329 75.0124 291.567 74.152 291.756 72.9387L295.779 47.157C295.926 46.2133 295.897 45.5182 295.691 45.0716C295.485 44.6251 295.14 44.2949 294.656 44.0811L293.442 43.5802C292.835 43.2779 292.408 42.9177 292.163 42.4996C291.952 42.0867 291.894 41.577 291.988 40.9703C292.094 40.2963 292.363 39.7861 292.796 39.4396C293.263 39.0984 294.049 38.8072 295.155 38.5661L308.372 36.0265C310.048 35.6675 311.341 35.4385 312.253 35.3395C313.203 35.2122 314.032 35.2038 314.738 35.3144C316.118 35.5304 317.103 36.0644 317.693 36.9165C318.284 37.7685 318.49 38.7675 318.311 39.9133ZM308.177 29.9886C304.51 29.4144 301.739 28.0657 299.865 25.9423C298.024 23.8243 297.337 21.2655 297.806 18.2661C298.268 15.3003 299.696 13.1072 302.089 11.6866C304.516 10.2712 307.562 9.85062 311.229 10.4248C314.863 10.9937 317.619 12.323 319.499 14.4126C321.378 16.5022 322.087 19.0299 321.624 21.9957C321.156 24.9951 319.706 27.2194 317.274 28.6684C314.843 30.1175 311.81 30.5575 308.177 29.9886Z" fill="white"/>
<path d="M332.762 46.2802L331.063 45.0986C330.472 44.6632 330.063 44.2045 329.836 43.7227C329.642 43.2494 329.617 42.7321 329.763 42.1708C329.977 41.3453 330.403 40.7865 331.041 40.4943C331.721 40.1776 332.506 40.1349 333.396 40.3662L336.313 41.1241C336.84 41.2612 337.369 41.2576 337.899 41.1133C338.47 40.9446 339.229 40.5956 340.175 40.0662L351.478 33.9113C352.681 33.2022 353.755 32.7235 354.699 32.4754C355.643 32.2273 356.493 32.2017 357.252 32.3987C358.109 32.6214 358.695 33.0733 359.011 33.7545C359.36 34.4443 359.398 35.3175 359.124 36.3741L348.826 76.1444C348.177 78.6538 348.114 80.6636 348.637 82.174C349.169 83.6514 350.226 84.5956 351.808 85.0067C352.962 85.3065 353.937 85.2779 354.733 84.9209C355.537 84.5309 356.236 84.0076 356.828 83.3509C357.453 82.7028 358.061 82.1208 358.652 81.6048C359.284 81.0643 359.972 80.785 360.716 80.7667C361.293 80.8463 361.712 81.1313 361.972 81.6217C362.232 82.1121 362.233 82.8526 361.977 83.8432C361.184 86.6326 359.723 88.9486 357.592 90.7913C355.503 92.6096 352.941 93.8114 349.905 94.3968C346.901 94.9908 343.653 94.8338 340.159 93.926C334.853 92.5471 331.095 90.2138 328.886 86.9263C326.676 83.6388 326.239 79.4196 327.572 74.2688L333.959 49.6043C334.173 48.7788 334.178 48.1459 333.976 47.7057C333.782 47.2324 333.377 46.7572 332.762 46.2802ZM348.084 50.6847L349.761 44.6185L367.46 49.2177C368.35 49.449 369.007 49.8312 369.432 50.3645C369.865 50.8647 369.988 51.478 369.8 52.2044C369.518 53.294 368.735 54.0772 367.45 54.554C366.207 55.0063 364.383 54.9199 361.977 54.2947L348.084 50.6847Z" fill="white"/>
<path d="M423.804 71.6975L466.167 76.1708L465.476 82.7349L423.113 78.2616L423.804 71.6975ZM434.269 100.122C434.187 100.903 434.324 101.552 434.68 102.069C435.071 102.591 435.673 103.049 436.487 103.444L438.5 104.325C439.997 105.066 440.662 106.234 440.494 107.828C440.402 108.71 440.022 109.391 439.355 109.869C438.689 110.347 437.712 110.519 436.425 110.383L406.71 107.245C405.423 107.109 404.504 106.738 403.951 106.13C403.399 105.523 403.169 104.779 403.262 103.897C403.43 102.302 404.323 101.299 405.941 100.887L408.093 100.445C409.006 100.233 409.69 99.9108 410.147 99.4788C410.603 99.0468 410.872 98.4407 410.954 97.6604L416.362 46.2672C416.444 45.487 416.307 44.838 415.951 44.3202C415.594 43.8023 414.992 43.3443 414.144 42.946L412.131 42.0646C410.634 41.3234 409.969 40.1556 410.137 38.5613C410.233 37.6453 410.613 36.9651 411.276 36.5207C411.943 36.0423 412.919 35.871 414.206 36.0069L443.921 39.1446C445.208 39.2805 446.127 39.652 446.68 40.2592C447.236 40.8324 447.466 41.5769 447.369 42.4929C447.201 44.0872 446.308 45.0905 444.69 45.5027L442.538 45.9443C441.659 46.1602 440.975 46.4824 440.484 46.9108C440.028 47.3428 439.759 47.949 439.677 48.7292L434.269 100.122ZM478.308 104.773C478.226 105.553 478.38 106.204 478.77 106.725C479.16 107.247 479.746 107.703 480.526 108.094L482.539 108.975C484.036 109.717 484.701 110.884 484.533 112.479C484.44 113.361 484.061 114.041 483.394 114.519C482.727 114.998 481.751 115.169 480.464 115.033L450.8 111.901C449.513 111.765 448.593 111.393 448.041 110.786C447.489 110.179 447.259 109.434 447.352 108.552C447.519 106.958 448.412 105.955 450.031 105.543L452.183 105.101C453.062 104.885 453.729 104.561 454.186 104.129C454.676 103.701 454.962 103.096 455.044 102.316L460.452 50.923C460.534 50.1427 460.38 49.4919 459.99 48.9705C459.633 48.4527 459.048 47.9964 458.233 47.6017L456.22 46.7203C454.723 45.9791 454.059 44.8113 454.226 43.217C454.323 42.301 454.703 41.6208 455.366 41.1764C456.032 40.698 457.009 40.5267 458.296 40.6626L487.96 43.795C489.247 43.9309 490.166 44.3024 490.719 44.9095C491.275 45.4827 491.504 46.2273 491.408 47.1432C491.24 48.7376 490.347 49.7409 488.729 50.1531L486.577 50.5947C485.732 50.8141 485.064 51.1381 484.574 51.5665C484.084 51.995 483.798 52.5993 483.716 53.3795L478.308 104.773Z" fill="white"/>
<path d="M519.548 65.4174C525.166 65.3671 530.096 66.4146 534.338 68.5598C538.613 70.6706 541.943 73.6767 544.327 77.5783C546.711 81.4457 547.927 85.9718 547.973 91.1564C548.016 95.9659 546.812 100.309 544.36 104.186C541.943 108.062 538.566 111.162 534.228 113.487C529.924 115.776 524.911 116.947 519.191 116.998C513.539 117.049 508.592 116.002 504.35 113.856C500.109 111.677 496.796 108.654 494.411 104.786C492.027 100.919 490.813 96.4268 490.767 91.3104C490.723 86.3986 491.91 82.0046 494.327 78.1283C496.778 74.2516 500.156 71.1854 504.46 68.9296C508.799 66.6393 513.828 65.4686 519.548 65.4174ZM523.526 110.563C524.818 110.279 525.78 109.366 526.413 107.826C527.08 106.251 527.367 103.997 527.273 101.064C527.178 98.0968 526.651 94.3492 525.691 89.8209C524.8 85.4284 523.798 81.8556 522.684 79.1024C521.604 76.349 520.428 74.364 519.157 73.1473C517.887 71.9307 516.572 71.499 515.213 71.8523C513.921 72.1367 512.942 73.0665 512.275 74.6416C511.642 76.1824 511.373 78.4191 511.467 81.3519C511.595 84.2844 512.122 88.0321 513.048 92.5948C513.939 96.9532 514.941 100.526 516.055 103.313C517.17 106.066 518.345 108.034 519.581 109.217C520.852 110.4 522.167 110.848 523.526 110.563Z" fill="white"/>
<path d="M573.043 39.9986L578.195 103.543C578.295 104.767 578.468 105.642 578.716 106.17C578.961 106.663 579.346 106.991 579.872 107.154L581.135 107.564C581.87 107.778 582.391 108.095 582.698 108.515C583.039 108.932 583.234 109.43 583.28 110.008C583.349 110.858 583.132 111.543 582.627 112.063C582.154 112.546 581.34 112.835 580.186 112.929L556.718 114.838C555.564 114.932 554.697 114.78 554.118 114.383C553.537 113.951 553.212 113.31 553.143 112.46C553.096 111.882 553.207 111.359 553.477 110.893C553.746 110.426 554.21 110.029 554.866 109.702L556.098 109.088C556.59 108.843 556.901 108.458 557.029 107.934C557.189 107.374 557.219 106.481 557.119 105.257L552.827 52.3212C552.75 51.3692 552.559 50.7003 552.255 50.3144C551.984 49.9257 551.572 49.6855 551.018 49.5937L549.72 49.3912C549.093 49.2369 548.611 48.9852 548.275 48.6361C547.974 48.2842 547.798 47.8023 547.748 47.1903C547.693 46.5103 547.836 45.9511 548.176 45.5128C548.55 45.0717 549.247 44.6043 550.266 44.1107L562.472 38.5487C564.018 37.807 565.239 37.2798 566.136 36.9672C567.03 36.6207 567.834 36.4184 568.546 36.3604C569.938 36.2472 571.003 36.537 571.743 37.2297C572.516 37.9197 572.95 38.8427 573.043 39.9986Z" fill="white"/>
<path d="M633.49 74.3463C633.808 76.368 633.502 78.0393 632.572 79.3601C631.637 80.6473 630.127 81.4554 628.042 81.7846L597.87 86.5468L597.147 81.9474L610.669 79.8132C612.317 79.553 613.016 78.6311 612.767 77.0475C612.036 72.3975 611.009 69.1582 609.688 67.3294C608.36 65.467 606.906 64.6605 605.326 64.9101C604.216 65.0853 603.261 65.7021 602.463 66.7605C601.692 67.7799 601.186 69.2756 600.945 71.2474C600.704 73.2193 600.819 75.7047 601.29 78.7036C602.276 84.9708 604.376 89.3357 607.59 91.7982C610.804 94.2606 614.799 95.1149 619.575 94.361C622.03 93.9734 624.144 93.2772 625.917 92.2723C627.717 91.2284 629.214 89.6799 630.408 87.6267C631.099 86.758 631.642 86.1544 632.037 85.8158C632.431 85.4772 632.831 85.2761 633.234 85.2124C633.806 85.1221 634.272 85.3422 634.631 85.8725C635.024 86.3975 635.289 87.0981 635.427 87.9742C635.92 91.1078 635.369 94.1817 633.775 97.1959C632.175 100.176 629.703 102.759 626.359 104.945C623.048 107.125 619.038 108.587 614.329 109.33C609.283 110.126 604.6 109.829 600.28 108.439C595.959 107.05 592.335 104.721 589.408 101.453C586.515 98.1806 584.69 94.135 583.932 89.3166C583.078 83.8917 583.416 79.0214 584.943 74.7055C586.465 70.356 589.105 66.7623 592.865 63.9245C596.618 61.0529 601.371 59.1632 607.123 58.2553C612.202 57.4536 616.609 57.6386 620.343 58.8102C624.073 59.9482 627.048 61.8785 629.269 64.6013C631.484 67.2905 632.891 70.5388 633.49 74.3463Z" fill="white"/>
<path d="M545.538 86.3004C546.677 98.7897 535.918 109.984 521.507 111.303C507.096 112.622 494.49 103.567 493.35 91.0776C492.211 78.5883 502.97 67.3943 517.381 66.0752C531.793 64.756 544.399 73.8111 545.538 86.3004Z" fill="#F8FBFF"/>
<path d="M538.8 56.8658C536.779 66.7259 531.294 74.2096 526.551 73.5812C521.808 72.9528 519.601 64.4501 521.623 54.59C523.645 44.7299 529.129 37.2461 533.873 37.8746C538.616 38.503 540.822 47.0057 538.8 56.8658Z" fill="#F8FBFF"/>
<path d="M494.854 60.8886C498.626 70.2183 505.374 76.5824 509.925 75.1031C514.476 73.6239 515.107 64.8615 511.335 55.5317C507.563 46.202 500.816 39.8379 496.264 41.3172C491.713 42.7964 491.082 51.5588 494.854 60.8886Z" fill="#F8FBFF"/>
</svg>
